<svg xmlns="http://www.w3.org/2000/svg" xmlns:xlink="http://www.w3.org/1999/xlink" width="100" zoomAndPan="magnify" viewBox="0 0 75 74.999997" height="100" preserveAspectRatio="xMidYMid meet" version="1.0"><defs><clipPath id="e005328286"><path d="M 39 0 L 71.34375 0 L 71.34375 75 L 39 75 Z M 39 0 " clip-rule="nonzero"/></clipPath><clipPath id="52a8cdc67d"><path d="M 3.84375 14 L 48 14 L 48 61 L 3.84375 61 Z M 3.84375 14 " clip-rule="nonzero"/></clipPath></defs><rect x="-7.5" width="90" fill="#ffffff" y="-7.5" height="89.999996" fill-opacity="1"/><rect x="-7.5" width="90" fill="#ffffff" y="-7.5" height="89.999996" fill-opacity="1"/><g clip-path="url(#e005328286)"><path fill="#000000" d="M 39.113281 69.632812 C 39.113281 72.59375 41.515625 74.988281 44.484375 74.988281 L 55.226562 74.988281 C 64.121094 74.988281 71.335938 67.789062 71.335938 58.921875 L 71.335938 16.078125 C 71.335938 7.210938 64.121094 0.0117188 55.226562 0.0117188 L 44.484375 0.0117188 C 41.515625 0.0117188 39.113281 2.40625 39.113281 5.367188 C 39.113281 8.332031 41.515625 10.722656 44.484375 10.722656 L 55.226562 10.722656 C 58.195312 10.722656 60.59375 13.117188 60.59375 16.078125 L 60.59375 58.921875 C 60.59375 61.882812 58.195312 64.277344 55.226562 64.277344 L 44.484375 64.277344 C 41.515625 64.277344 39.113281 66.667969 39.113281 69.632812 Z M 39.113281 69.632812 " fill-opacity="1" fill-rule="nonzero"/></g><g clip-path="url(#52a8cdc67d)"><path fill="#000000" d="M 28.59375 16.3125 L 45.976562 33.648438 C 46.996094 34.664062 47.574219 36.058594 47.574219 37.5 C 47.574219 38.941406 46.996094 40.335938 45.976562 41.351562 L 28.59375 58.6875 C 27.6875 59.589844 26.472656 60.082031 25.199219 60.082031 C 22.550781 60.082031 20.398438 57.9375 20.398438 55.296875 L 20.398438 46.535156 L 8.367188 46.535156 C 5.863281 46.535156 3.839844 44.515625 3.839844 42.015625 L 3.839844 32.984375 C 3.839844 30.484375 5.863281 28.464844 8.367188 28.464844 L 20.398438 28.464844 L 20.398438 19.699219 C 20.398438 17.0625 22.550781 14.917969 25.199219 14.917969 C 26.472656 14.917969 27.6875 15.425781 28.59375 16.3125 Z M 28.59375 16.3125 " fill-opacity="1" fill-rule="nonzero"/></g></svg>