<svg xmlns="http://www.w3.org/2000/svg" xmlns:xlink="http://www.w3.org/1999/xlink" width="100" zoomAndPan="magnify" viewBox="0 0 75 74.999997" height="100" preserveAspectRatio="xMidYMid meet" version="1.0"><defs><clipPath id="bb3ce47cea"><path d="M 2.90625 31 L 46 31 L 46 61 L 2.90625 61 Z M 2.90625 31 " clip-rule="nonzero"/></clipPath></defs><rect x="-7.5" width="90" fill="#ffffff" y="-7.5" height="89.999996" fill-opacity="1"/><rect x="-7.5" width="90" fill="#ffffff" y="-7.5" height="89.999996" fill-opacity="1"/><g clip-path="url(#bb3ce47cea)"><path fill="#000000" d="M 42.714844 46.75 C 42.324219 43.035156 43.261719 39.441406 45.25 36.394531 C 43.222656 34.167969 40.765625 32.289062 38 31.003906 C 34.960938 33.035156 31.257812 34.242188 27.285156 34.242188 C 23.347656 34.242188 19.644531 33.035156 16.605469 31.003906 C 8.5 34.949219 2.929688 43.3125 2.929688 52.960938 L 2.929688 56.167969 C 2.929688 58.507812 4.800781 60.386719 7.097656 60.386719 L 29.117188 60.386719 Z M 42.714844 46.75 " fill-opacity="1" fill-rule="nonzero"/></g><path fill="#000000" d="M 27.304688 29.867188 C 35.53125 29.867188 42.199219 23.183594 42.199219 14.933594 C 42.199219 6.683594 35.53125 0 27.304688 0 C 19.078125 0 12.410156 6.683594 12.410156 14.933594 C 12.410156 23.183594 19.078125 29.867188 27.304688 29.867188 Z M 27.304688 29.867188 " fill-opacity="1" fill-rule="nonzero"/><path fill="#000000" d="M 63.625 34.886719 C 60.472656 33.210938 56.550781 33.210938 53.386719 34.871094 C 48.050781 37.679688 46.175781 43.347656 47.566406 48.269531 L 29.066406 66.820312 C 28.972656 67.050781 28.886719 67.253906 28.789062 67.488281 L 28.738281 74.050781 C 28.761719 74.5625 29.175781 74.976562 29.683594 75 L 35.726562 74.972656 C 36.234375 74.972656 36.640625 74.558594 36.640625 74.050781 L 36.640625 70.242188 C 36.640625 70.039062 36.808594 69.871094 37.011719 69.871094 L 40.726562 69.894531 C 41.238281 69.898438 41.65625 69.480469 41.660156 68.972656 L 41.683594 65.179688 C 41.683594 64.976562 41.84375 64.8125 42.046875 64.8125 C 42.832031 64.804688 44.726562 64.789062 45.855469 64.753906 C 46.355469 64.738281 46.75 64.328125 46.75 63.828125 L 46.75 60.101562 C 46.75 59.898438 46.914062 59.734375 47.117188 59.734375 L 51.214844 59.734375 C 51.585938 59.734375 51.9375 59.585938 52.203125 59.324219 L 55.394531 56.121094 C 59.273438 57.242188 63.5625 56.292969 66.59375 53.253906 C 71.886719 47.945312 70.902344 38.730469 63.625 34.886719 Z M 63.5625 44.625 C 62.304688 45.886719 60.292969 45.867188 59.054688 44.625 C 57.792969 43.363281 57.769531 41.34375 59.03125 40.082031 C 60.292969 38.816406 62.304688 38.839844 63.566406 40.101562 C 64.800781 41.34375 64.824219 43.359375 63.5625 44.625 Z M 63.5625 44.625 " fill-opacity="1" fill-rule="nonzero"/></svg>