<svg xmlns="http://www.w3.org/2000/svg" xmlns:xlink="http://www.w3.org/1999/xlink" width="100" zoomAndPan="magnify" viewBox="0 0 75 74.999997" height="100" preserveAspectRatio="xMidYMid meet" version="1.0"><defs><clipPath id="2eedad67d8"><path d="M 7.5 7.5 L 67.5 7.5 L 67.5 67.5 L 7.5 67.5 Z M 7.5 7.5 " clip-rule="nonzero"/></clipPath></defs><rect x="-7.5" width="90" fill="#ffffff" y="-7.5" height="89.999996" fill-opacity="1"/><rect x="-7.5" width="90" fill="#ffffff" y="-7.5" height="89.999996" fill-opacity="1"/><g clip-path="url(#2eedad67d8)"><path fill="#000000" d="M 65.070312 53.292969 C 64.300781 52.523438 63.414062 51.925781 62.429688 51.503906 C 61.410156 51.070312 60.316406 50.84375 59.203125 50.84375 C 58.085938 50.84375 56.992188 51.058594 55.972656 51.503906 C 54.988281 51.925781 54.101562 52.523438 53.335938 53.292969 C 52.566406 54.058594 51.976562 54.949219 51.558594 55.933594 C 51.222656 56.722656 51.019531 57.5625 50.933594 58.414062 L 39.664062 58.414062 C 39.605469 57.972656 39.484375 57.527344 39.304688 57.109375 C 39.042969 56.484375 38.65625 55.90625 38.179688 55.429688 C 37.699219 54.949219 37.132812 54.5625 36.496094 54.300781 C 35.851562 54.023438 35.152344 53.878906 34.445312 53.878906 C 33.738281 53.878906 33.042969 54.023438 32.394531 54.300781 C 31.769531 54.5625 31.207031 54.949219 30.714844 55.429688 C 30.234375 55.90625 29.851562 56.484375 29.585938 57.109375 C 29.40625 57.527344 29.285156 57.960938 29.226562 58.414062 L 19.074219 58.414062 C 13.53125 58.414062 9.019531 53.890625 9.019531 48.335938 C 9.019531 42.78125 13.53125 38.257812 19.074219 38.257812 L 21.390625 38.257812 C 21.449219 38.699219 21.570312 39.144531 21.75 39.5625 C 22.015625 40.1875 22.398438 40.765625 22.878906 41.242188 C 23.359375 41.722656 23.921875 42.109375 24.558594 42.371094 C 25.207031 42.648438 25.902344 42.792969 26.609375 42.792969 C 27.316406 42.792969 28.015625 42.648438 28.660156 42.371094 C 29.285156 42.109375 29.851562 41.722656 30.34375 41.242188 C 30.835938 40.765625 31.207031 40.1875 31.46875 39.5625 C 31.648438 39.144531 31.769531 38.710938 31.828125 38.257812 L 42.761719 38.257812 C 42.820312 38.699219 42.941406 39.144531 43.121094 39.5625 C 43.386719 40.1875 43.769531 40.765625 44.25 41.242188 C 44.730469 41.722656 45.292969 42.109375 45.929688 42.371094 C 46.578125 42.648438 47.273438 42.792969 47.980469 42.792969 C 48.691406 42.792969 49.386719 42.648438 50.035156 42.371094 C 50.65625 42.109375 51.222656 41.722656 51.714844 41.242188 C 52.195312 40.765625 52.578125 40.1875 52.84375 39.5625 C 53.023438 39.144531 53.140625 38.710938 53.203125 38.257812 L 55.9375 38.257812 C 57.496094 38.257812 59.011719 37.945312 60.4375 37.34375 C 61.816406 36.757812 63.054688 35.929688 64.109375 34.859375 C 65.164062 33.792969 66.007812 32.554688 66.582031 31.175781 C 67.183594 29.746094 67.492188 28.222656 67.492188 26.664062 C 67.492188 25.105469 67.195312 23.578125 66.582031 22.152344 C 65.992188 20.773438 65.164062 19.535156 64.109375 18.46875 C 63.054688 17.398438 61.804688 16.570312 60.4375 15.984375 C 59.011719 15.382812 57.496094 15.070312 55.9375 15.070312 L 45.367188 15.070312 C 45.304688 14.628906 45.1875 14.183594 45.007812 13.765625 C 44.742188 13.140625 44.359375 12.5625 43.878906 12.085938 C 43.398438 11.605469 42.835938 11.21875 42.199219 10.957031 C 41.550781 10.679688 40.855469 10.535156 40.144531 10.535156 C 39.4375 10.535156 38.742188 10.679688 38.09375 10.957031 C 37.46875 11.21875 36.90625 11.605469 36.414062 12.085938 C 35.933594 12.5625 35.550781 13.140625 35.285156 13.765625 C 35.105469 14.183594 34.984375 14.617188 34.925781 15.070312 L 24.089844 15.070312 C 24.019531 14.21875 23.800781 13.378906 23.464844 12.589844 C 23.046875 11.59375 22.445312 10.703125 21.691406 9.949219 C 20.921875 9.179688 20.035156 8.578125 19.050781 8.160156 C 18.019531 7.714844 16.925781 7.5 15.808594 7.5 C 14.695312 7.5 13.601562 7.714844 12.582031 8.160156 C 11.597656 8.578125 10.710938 9.179688 9.941406 9.949219 C 9.175781 10.714844 8.585938 11.605469 8.164062 12.589844 C 7.722656 13.609375 7.507812 14.699219 7.507812 15.828125 C 7.507812 16.957031 7.722656 18.035156 8.152344 19.066406 C 8.574219 20.0625 9.175781 20.953125 9.929688 21.707031 C 10.699219 22.476562 11.585938 23.074219 12.570312 23.496094 C 13.589844 23.929688 14.683594 24.15625 15.796875 24.15625 C 16.914062 24.15625 18.007812 23.941406 19.027344 23.496094 C 20.011719 23.074219 20.898438 22.476562 21.664062 21.707031 C 22.433594 20.941406 23.023438 20.050781 23.441406 19.066406 C 23.777344 18.277344 23.980469 17.4375 24.066406 16.585938 L 34.902344 16.585938 C 34.960938 17.027344 35.082031 17.472656 35.261719 17.890625 C 35.527344 18.515625 35.910156 19.09375 36.390625 19.570312 C 36.871094 20.050781 37.433594 20.4375 38.070312 20.699219 C 38.71875 20.976562 39.414062 21.121094 40.121094 21.121094 C 40.828125 21.121094 41.527344 20.976562 42.175781 20.699219 C 42.796875 20.4375 43.363281 20.050781 43.855469 19.570312 C 44.335938 19.09375 44.71875 18.515625 44.980469 17.890625 C 45.160156 17.472656 45.28125 17.039062 45.34375 16.585938 L 55.914062 16.585938 C 61.457031 16.585938 65.96875 21.109375 65.96875 26.664062 C 65.96875 32.21875 61.457031 36.742188 55.914062 36.742188 L 53.179688 36.742188 C 53.117188 36.300781 52.996094 35.855469 52.816406 35.4375 C 52.554688 34.8125 52.171875 34.234375 51.691406 33.757812 C 51.210938 33.277344 50.644531 32.890625 50.011719 32.628906 C 49.363281 32.351562 48.664062 32.207031 47.957031 32.207031 C 47.25 32.207031 46.554688 32.351562 45.90625 32.628906 C 45.28125 32.890625 44.71875 33.277344 44.226562 33.757812 C 43.746094 34.234375 43.363281 34.8125 43.097656 35.4375 C 42.917969 35.855469 42.796875 36.289062 42.738281 36.742188 L 31.804688 36.742188 C 31.746094 36.300781 31.625 35.855469 31.445312 35.4375 C 31.183594 34.8125 30.796875 34.234375 30.316406 33.757812 C 29.839844 33.277344 29.273438 32.890625 28.636719 32.628906 C 27.988281 32.351562 27.292969 32.207031 26.585938 32.207031 C 25.878906 32.207031 25.183594 32.351562 24.535156 32.628906 C 23.910156 32.890625 23.347656 33.277344 22.855469 33.757812 C 22.375 34.234375 21.988281 34.8125 21.726562 35.4375 C 21.546875 35.855469 21.425781 36.289062 21.367188 36.742188 L 19.074219 36.742188 C 17.515625 36.742188 16.003906 37.054688 14.574219 37.65625 C 13.195312 38.242188 11.957031 39.070312 10.902344 40.140625 C 9.847656 41.207031 9.007812 42.445312 8.429688 43.824219 C 7.828125 45.253906 7.519531 46.777344 7.519531 48.335938 C 7.519531 49.894531 7.816406 51.421875 8.429688 52.847656 C 9.019531 54.226562 9.847656 55.464844 10.902344 56.53125 C 11.957031 57.601562 13.207031 58.429688 14.574219 59.015625 C 16.003906 59.617188 17.515625 59.929688 19.074219 59.929688 L 29.226562 59.929688 C 29.285156 60.371094 29.40625 60.816406 29.585938 61.234375 C 29.851562 61.859375 30.234375 62.4375 30.714844 62.914062 C 31.195312 63.394531 31.757812 63.78125 32.394531 64.042969 C 33.042969 64.320312 33.738281 64.464844 34.445312 64.464844 C 35.152344 64.464844 35.851562 64.320312 36.496094 64.042969 C 37.121094 63.78125 37.6875 63.394531 38.179688 62.914062 C 38.65625 62.4375 39.042969 61.859375 39.304688 61.234375 C 39.484375 60.816406 39.605469 60.382812 39.664062 59.929688 L 50.933594 59.929688 C 51.007812 60.78125 51.222656 61.621094 51.558594 62.410156 C 51.976562 63.40625 52.578125 64.296875 53.335938 65.050781 C 54.089844 65.808594 54.988281 66.421875 55.972656 66.839844 C 56.992188 67.273438 58.085938 67.5 59.203125 67.5 C 60.316406 67.5 61.410156 67.285156 62.429688 66.839844 C 63.414062 66.421875 64.300781 65.820312 65.070312 65.050781 C 65.839844 64.285156 66.425781 63.394531 66.847656 62.410156 C 67.277344 61.378906 67.492188 60.300781 67.492188 59.171875 C 67.492188 58.042969 67.277344 56.964844 66.847656 55.933594 C 66.4375 54.949219 65.839844 54.046875 65.070312 53.292969 Z M 15.808594 22.644531 C 12.066406 22.644531 9.007812 19.585938 9.007812 15.828125 C 9.007812 12.058594 12.066406 9.011719 15.808594 9.011719 C 19.554688 9.011719 22.613281 12.070312 22.613281 15.828125 C 22.613281 19.585938 19.566406 22.644531 15.808594 22.644531 Z M 40.144531 19.609375 C 38.070312 19.609375 36.378906 17.914062 36.378906 15.828125 C 36.378906 13.738281 38.070312 12.046875 40.144531 12.046875 C 42.222656 12.046875 43.914062 13.738281 43.914062 15.828125 C 43.914062 17.914062 42.222656 19.609375 40.144531 19.609375 Z M 47.980469 33.71875 C 50.058594 33.71875 51.75 35.410156 51.75 37.5 C 51.75 39.589844 50.058594 41.28125 47.980469 41.28125 C 45.90625 41.28125 44.214844 39.589844 44.214844 37.5 C 44.214844 35.410156 45.90625 33.71875 47.980469 33.71875 Z M 26.609375 33.71875 C 28.6875 33.71875 30.378906 35.410156 30.378906 37.5 C 30.378906 39.589844 28.6875 41.28125 26.609375 41.28125 C 24.535156 41.28125 22.84375 39.589844 22.84375 37.5 C 22.84375 35.410156 24.523438 33.71875 26.609375 33.71875 Z M 34.445312 62.953125 C 32.371094 62.953125 30.679688 61.261719 30.679688 59.171875 C 30.679688 57.085938 32.371094 55.390625 34.445312 55.390625 C 36.523438 55.390625 38.214844 57.085938 38.214844 59.171875 C 38.214844 61.261719 36.523438 62.953125 34.445312 62.953125 Z M 59.203125 65.988281 C 55.457031 65.988281 52.398438 62.929688 52.398438 59.171875 C 52.398438 55.414062 55.445312 52.355469 59.203125 52.355469 C 62.945312 52.355469 66.007812 55.414062 66.007812 59.171875 C 66.007812 62.941406 62.945312 65.988281 59.203125 65.988281 Z M 59.203125 65.988281 " fill-opacity="1" fill-rule="nonzero"/></g><path fill="#000000" d="M 59.203125 53.988281 C 57.820312 53.988281 56.527344 54.527344 55.542969 55.511719 C 54.558594 56.496094 54.03125 57.792969 54.03125 59.171875 C 54.03125 60.550781 54.570312 61.859375 55.542969 62.832031 C 56.515625 63.816406 57.820312 64.355469 59.203125 64.355469 C 60.582031 64.355469 61.878906 63.816406 62.863281 62.832031 C 63.835938 61.847656 64.375 60.550781 64.375 59.171875 C 64.375 57.792969 63.835938 56.484375 62.863281 55.511719 C 61.878906 54.527344 60.582031 53.988281 59.203125 53.988281 Z M 59.203125 62.855469 C 57.1875 62.855469 55.53125 61.210938 55.53125 59.183594 C 55.53125 57.15625 57.175781 55.511719 59.203125 55.511719 C 61.21875 55.511719 62.875 57.15625 62.875 59.183594 C 62.875 61.199219 61.21875 62.855469 59.203125 62.855469 Z M 59.203125 62.855469 " fill-opacity="1" fill-rule="nonzero"/><path fill="#000000" d="M 61.085938 59.171875 C 61.085938 59.421875 61.039062 59.664062 60.941406 59.898438 C 60.847656 60.128906 60.710938 60.335938 60.535156 60.511719 C 60.359375 60.691406 60.152344 60.828125 59.921875 60.921875 C 59.691406 61.019531 59.453125 61.066406 59.203125 61.066406 C 58.953125 61.066406 58.710938 61.019531 58.480469 60.921875 C 58.25 60.828125 58.046875 60.691406 57.871094 60.511719 C 57.691406 60.335938 57.558594 60.128906 57.460938 59.898438 C 57.367188 59.664062 57.316406 59.421875 57.316406 59.171875 C 57.316406 58.921875 57.367188 58.679688 57.460938 58.445312 C 57.558594 58.214844 57.691406 58.007812 57.871094 57.832031 C 58.046875 57.652344 58.25 57.515625 58.480469 57.421875 C 58.710938 57.324219 58.953125 57.277344 59.203125 57.277344 C 59.453125 57.277344 59.691406 57.324219 59.921875 57.421875 C 60.152344 57.515625 60.359375 57.652344 60.535156 57.832031 C 60.710938 58.007812 60.847656 58.214844 60.941406 58.445312 C 61.039062 58.679688 61.085938 58.921875 61.085938 59.171875 Z M 61.085938 59.171875 " fill-opacity="1" fill-rule="nonzero"/><path fill="#000000" d="M 15.976562 14.304688 L 12.652344 14.304688 L 12.652344 17.339844 L 15.976562 17.339844 L 15.976562 18.792969 L 20.394531 15.828125 L 15.976562 12.851562 Z M 15.976562 14.304688 " fill-opacity="1" fill-rule="nonzero"/></svg>