<svg xmlns="http://www.w3.org/2000/svg" xmlns:xlink="http://www.w3.org/1999/xlink" width="100" zoomAndPan="magnify" viewBox="0 0 75 74.999997" height="100" preserveAspectRatio="xMidYMid meet" version="1.0"><defs><clipPath id="713ba17983"><path d="M 37 6.605469 L 59 6.605469 L 59 67.355469 L 37 67.355469 Z M 37 6.605469 " clip-rule="nonzero"/></clipPath><clipPath id="e0bd5e9a01"><path d="M 1.574219 21 L 45 21 L 45 53 L 1.574219 53 Z M 1.574219 21 " clip-rule="nonzero"/></clipPath></defs><g clip-path="url(#713ba17983)"><path fill="#000000" d="M 56.519531 62.984375 L 50.191406 62.984375 L 50.191406 10.835938 C 52.03125 10.425781 58.769531 12.203125 58.628906 8.71875 C 58.628906 7.550781 57.6875 6.605469 56.519531 6.605469 L 39.640625 6.605469 C 36.910156 6.5625 36.894531 10.875 39.640625 10.835938 C 39.640625 10.835938 45.96875 10.835938 45.96875 10.835938 L 45.96875 62.984375 C 44.113281 63.394531 37.390625 61.617188 37.53125 65.101562 C 37.53125 66.269531 38.472656 67.214844 39.640625 67.214844 L 56.519531 67.214844 C 59.25 67.257812 59.261719 62.945312 56.519531 62.984375 Z M 56.519531 62.984375 " fill-opacity="1" fill-rule="nonzero"/></g><path fill="#000000" d="M 69.882812 21.40625 L 53.707031 21.40625 C 52.539062 21.40625 51.597656 22.351562 51.597656 23.519531 L 51.597656 50.414062 L 51.609375 50.414062 C 51.667969 51.527344 52.582031 52.414062 53.707031 52.414062 L 69.882812 52.414062 C 71.050781 52.414062 71.992188 51.46875 71.992188 50.300781 L 71.992188 23.519531 C 71.992188 22.351562 71.050781 21.40625 69.882812 21.40625 Z M 69.882812 21.40625 " fill-opacity="1" fill-rule="nonzero"/><g clip-path="url(#e0bd5e9a01)"><path fill="#000000" d="M 44.5625 50.300781 L 44.5625 23.632812 L 44.550781 23.632812 C 44.648438 22.433594 43.648438 21.40625 42.453125 21.40625 L 3.769531 21.40625 C 2.601562 21.40625 1.660156 22.351562 1.660156 23.519531 L 1.660156 50.300781 C 1.660156 51.46875 2.601562 52.414062 3.769531 52.414062 L 42.453125 52.414062 C 43.621094 52.414062 44.5625 51.46875 44.5625 50.300781 Z M 22 31.285156 C 21.394531 31.933594 18.214844 31.539062 17.386719 31.636719 L 17.386719 42.871094 C 17.398438 44 16.90625 44.761719 15.839844 44.773438 C 14.769531 44.761719 14.261719 43.984375 14.277344 42.871094 C 14.277344 42.871094 14.277344 31.636719 14.277344 31.636719 C 13.445312 31.527344 10.28125 31.933594 9.675781 31.285156 C 8.761719 30.382812 9.535156 28.902344 10.871094 29.058594 C 10.871094 29.058594 20.804688 29.058594 20.804688 29.058594 C 22.152344 28.890625 22.929688 30.382812 22 31.285156 Z M 32.84375 44.449219 C 30.777344 46 29.285156 41.617188 28.203125 40.519531 C 27.21875 41.730469 24.53125 47.183594 23.152344 43.648438 C 23.140625 42.789062 25.894531 39.433594 26.347656 38.617188 C 25.855469 37.769531 23.40625 35.121094 23.449219 34.160156 C 24.65625 30.878906 27.289062 35.585938 28.21875 36.796875 C 29.117188 35.542969 31.71875 30.878906 32.957031 34.160156 C 32.929688 35.203125 30.550781 37.714844 30.03125 38.617188 C 30.480469 39.800781 34.25 43.238281 32.84375 44.449219 Z M 32.84375 44.449219 " fill-opacity="1" fill-rule="nonzero"/></g></svg>