<svg xmlns="http://www.w3.org/2000/svg" xmlns:xlink="http://www.w3.org/1999/xlink" width="100" zoomAndPan="magnify" viewBox="0 0 75 74.999997" height="100" preserveAspectRatio="xMidYMid meet" version="1.0"><defs><clipPath id="514a559612"><path d="M 26 26 L 44 26 L 44 73.347656 L 26 73.347656 Z M 26 26 " clip-rule="nonzero"/></clipPath><clipPath id="9e993700a6"><path d="M 28 1.347656 L 43 1.347656 L 43 16 L 28 16 Z M 28 1.347656 " clip-rule="nonzero"/></clipPath><clipPath id="c812409ce4"><path d="M 20.535156 16 L 49.785156 16 L 49.785156 33 L 20.535156 33 Z M 20.535156 16 " clip-rule="nonzero"/></clipPath></defs><rect x="-7.5" width="90" fill="#ffffff" y="-7.5" height="89.999996" fill-opacity="1"/><rect x="-7.5" width="90" fill="#ffffff" y="-7.5" height="89.999996" fill-opacity="1"/><g clip-path="url(#514a559612)"><path fill="#000000" d="M 36.777344 28.082031 C 36.191406 27.65625 35.644531 27.246094 35.152344 26.875 C 34.664062 27.246094 34.113281 27.65625 33.53125 28.082031 C 31.554688 29.523438 29.046875 31.292969 26.917969 32.40625 L 26.917969 69.589844 C 26.917969 71.660156 28.601562 73.339844 30.679688 73.339844 C 32.761719 73.339844 34.449219 71.660156 34.449219 69.589844 L 34.449219 42.1875 L 35.859375 42.1875 L 35.859375 69.589844 C 35.859375 71.660156 37.546875 73.339844 39.625 73.339844 C 41.703125 73.339844 43.390625 71.660156 43.390625 69.589844 L 43.390625 32.40625 C 41.261719 31.292969 38.75 29.523438 36.777344 28.082031 Z M 36.777344 28.082031 " fill-opacity="1" fill-rule="nonzero"/></g><g clip-path="url(#9e993700a6)"><path fill="#000000" d="M 42.007812 8.175781 C 42.007812 8.625 41.964844 9.070312 41.875 9.507812 C 41.789062 9.949219 41.65625 10.375 41.484375 10.789062 C 41.3125 11.203125 41.101562 11.597656 40.851562 11.972656 C 40.601562 12.34375 40.316406 12.6875 40 13.003906 C 39.683594 13.324219 39.335938 13.605469 38.960938 13.855469 C 38.585938 14.105469 38.191406 14.316406 37.777344 14.484375 C 37.359375 14.65625 36.933594 14.789062 36.492188 14.875 C 36.050781 14.960938 35.605469 15.007812 35.152344 15.007812 C 34.703125 15.007812 34.257812 14.960938 33.816406 14.875 C 33.375 14.789062 32.945312 14.65625 32.53125 14.484375 C 32.117188 14.316406 31.722656 14.105469 31.347656 13.855469 C 30.972656 13.605469 30.625 13.324219 30.308594 13.003906 C 29.988281 12.6875 29.707031 12.34375 29.457031 11.972656 C 29.207031 11.597656 28.996094 11.203125 28.824219 10.789062 C 28.652344 10.375 28.519531 9.949219 28.433594 9.507812 C 28.34375 9.070312 28.300781 8.625 28.300781 8.175781 C 28.300781 7.726562 28.34375 7.285156 28.433594 6.84375 C 28.519531 6.402344 28.652344 5.976562 28.824219 5.5625 C 28.996094 5.148438 29.207031 4.753906 29.457031 4.382812 C 29.707031 4.007812 29.988281 3.664062 30.308594 3.347656 C 30.625 3.03125 30.972656 2.746094 31.347656 2.496094 C 31.722656 2.25 32.117188 2.039062 32.53125 1.867188 C 32.945312 1.695312 33.375 1.566406 33.816406 1.476562 C 34.257812 1.390625 34.703125 1.347656 35.152344 1.347656 C 35.605469 1.347656 36.050781 1.390625 36.492188 1.476562 C 36.933594 1.566406 37.359375 1.695312 37.777344 1.867188 C 38.191406 2.039062 38.585938 2.25 38.960938 2.496094 C 39.335938 2.746094 39.683594 3.03125 40 3.347656 C 40.316406 3.664062 40.601562 4.007812 40.851562 4.382812 C 41.101562 4.753906 41.3125 5.148438 41.484375 5.5625 C 41.65625 5.976562 41.789062 6.402344 41.875 6.84375 C 41.964844 7.285156 42.007812 7.726562 42.007812 8.175781 Z M 42.007812 8.175781 " fill-opacity="1" fill-rule="nonzero"/></g><g clip-path="url(#c812409ce4)"><path fill="#000000" d="M 47.28125 20.808594 C 46.121094 18.816406 44.601562 17.664062 43.277344 17.15625 C 42.398438 16.8125 41.636719 16.734375 41.140625 16.734375 C 41.105469 16.734375 41.074219 16.734375 41.042969 16.734375 C 41.039062 16.734375 41.039062 16.734375 41.035156 16.734375 L 29.269531 16.734375 C 29.269531 16.734375 29.265625 16.734375 29.265625 16.734375 C 29.230469 16.734375 29.203125 16.734375 29.167969 16.734375 C 28.667969 16.734375 27.90625 16.8125 27.03125 17.15625 C 25.703125 17.664062 24.183594 18.816406 23.023438 20.808594 C 21.855469 22.800781 20.976562 25.585938 20.574219 29.601562 C 20.5625 29.683594 20.554688 29.800781 20.554688 29.945312 C 20.554688 30.253906 20.59375 30.609375 20.738281 31 C 20.851562 31.339844 21.074219 31.6875 21.351562 31.976562 C 21.554688 32.191406 21.789062 32.375 22.03125 32.5 C 22.601562 32.804688 23.113281 32.859375 23.503906 32.863281 C 23.910156 32.859375 24.222656 32.800781 24.507812 32.734375 C 24.507812 32.734375 24.511719 32.734375 24.511719 32.730469 C 24.515625 32.730469 24.519531 32.730469 24.523438 32.730469 C 25.183594 32.5625 25.75 32.3125 26.359375 32.011719 C 28.445312 30.960938 31.007812 29.167969 33.171875 27.59375 C 33.699219 27.207031 34.199219 26.835938 34.652344 26.496094 C 33.609375 25.703125 32.933594 25.164062 32.921875 25.15625 C 32.109375 24.507812 31.71875 23.527344 31.785156 22.566406 C 30.828125 23.289062 29.648438 24.160156 28.445312 24.996094 C 27.605469 25.582031 26.753906 26.152344 25.976562 26.636719 C 26.046875 26.332031 26.125 26.042969 26.203125 25.773438 C 26.425781 25 26.671875 24.371094 26.917969 23.859375 L 26.917969 25.304688 C 27.292969 25.050781 27.679688 24.789062 28.097656 24.5 C 29.566406 23.472656 30.996094 22.402344 32.003906 21.636719 C 32.109375 21.375 32.253906 21.121094 32.441406 20.890625 C 33.023438 20.164062 33.890625 19.75 34.824219 19.75 C 34.933594 19.75 35.042969 19.757812 35.152344 19.769531 C 35.261719 19.757812 35.375 19.75 35.484375 19.75 C 36.417969 19.75 37.285156 20.164062 37.867188 20.890625 C 38.054688 21.121094 38.195312 21.375 38.304688 21.636719 C 39.308594 22.402344 40.742188 23.472656 42.210938 24.5 C 42.625 24.789062 43.015625 25.050781 43.390625 25.304688 L 43.390625 23.859375 C 43.636719 24.367188 43.882812 25 44.105469 25.773438 C 44.183594 26.042969 44.261719 26.332031 44.332031 26.636719 C 43.550781 26.152344 42.703125 25.582031 41.863281 24.996094 C 39.660156 23.460938 37.527344 21.816406 36.703125 21.167969 C 36.46875 20.984375 36.34375 20.886719 36.339844 20.886719 C 35.289062 20.050781 33.757812 20.222656 32.917969 21.269531 C 32.078125 22.316406 32.25 23.847656 33.304688 24.683594 C 33.320312 24.695312 34.992188 26.023438 37.136719 27.59375 C 39.300781 29.171875 41.863281 30.960938 43.949219 32.011719 C 44.558594 32.3125 45.125 32.5625 45.78125 32.730469 C 45.789062 32.730469 45.792969 32.730469 45.796875 32.734375 C 45.796875 32.734375 45.796875 32.734375 45.800781 32.734375 C 46.085938 32.800781 46.398438 32.859375 46.804688 32.863281 C 47.195312 32.859375 47.707031 32.804688 48.273438 32.5 C 48.519531 32.378906 48.75 32.191406 48.957031 31.976562 C 49.234375 31.6875 49.457031 31.339844 49.570312 31 C 49.714844 30.609375 49.753906 30.253906 49.753906 29.945312 C 49.753906 29.800781 49.742188 29.683594 49.734375 29.601562 C 49.332031 25.585938 48.453125 22.800781 47.28125 20.808594 Z M 47.28125 20.808594 " fill-opacity="1" fill-rule="nonzero"/></g></svg>