<svg xmlns="http://www.w3.org/2000/svg" xmlns:xlink="http://www.w3.org/1999/xlink" width="100" zoomAndPan="magnify" viewBox="0 0 75 74.999997" height="100" preserveAspectRatio="xMidYMid meet" version="1.0"><defs><clipPath id="8668cec2f1"><path d="M 5.851562 5.625 L 67 5.625 L 67 66.375 L 5.851562 66.375 Z M 5.851562 5.625 " clip-rule="nonzero"/></clipPath><clipPath id="3ef080428b"><path d="M 17 11 L 72.601562 11 L 72.601562 53 L 17 53 Z M 17 11 " clip-rule="nonzero"/></clipPath></defs><rect x="-7.5" width="90" fill="#ffffff" y="-7.5" height="89.999996" fill-opacity="1"/><rect x="-7.5" width="90" fill="#ffffff" y="-7.5" height="89.999996" fill-opacity="1"/><g clip-path="url(#8668cec2f1)"><path fill="#000000" d="M 62.078125 32.28125 C 62.25 33.5 62.34375 34.742188 62.34375 36.011719 C 62.34375 50.457031 50.609375 62.210938 36.183594 62.210938 C 21.757812 62.210938 10.023438 50.457031 10.023438 36.011719 C 10.023438 21.5625 21.757812 9.8125 36.183594 9.8125 C 43.695312 9.8125 50.472656 13.003906 55.246094 18.09375 L 58.195312 15.144531 C 52.660156 9.296875 44.84375 5.636719 36.183594 5.636719 C 19.460938 5.636719 5.851562 19.261719 5.851562 36.011719 C 5.851562 52.757812 19.460938 66.382812 36.183594 66.382812 C 52.90625 66.382812 66.515625 52.757812 66.515625 36.011719 C 66.515625 33.5 66.203125 31.0625 65.625 28.726562 L 62.078125 32.28125 " fill-opacity="1" fill-rule="nonzero"/></g><g clip-path="url(#3ef080428b)"><path fill="#000000" d="M 70.679688 13.152344 C 68.757812 11.226562 65.644531 11.226562 63.71875 13.152344 L 36.375 40.535156 L 26.335938 30.476562 C 24.410156 28.550781 21.296875 28.550781 19.375 30.476562 C 17.453125 32.402344 17.453125 35.523438 19.375 37.445312 L 32.898438 50.988281 C 33.859375 51.953125 35.117188 52.433594 36.375 52.433594 C 37.636719 52.433594 38.894531 51.953125 39.855469 50.988281 L 70.679688 20.121094 C 72.605469 18.195312 72.605469 15.078125 70.679688 13.152344 " fill-opacity="1" fill-rule="nonzero"/></g></svg>